<svg width="50" height="50" viewBox="0 0 50 50" fill="none" xmlns="http://www.w3.org/2000/svg">
<g id="material-symbols:mail">
<path id="Vector" d="M8.33366 41.6667C7.18783 41.6667 6.20658 41.2584 5.38991 40.4417C4.57325 39.625 4.16561 38.6445 4.167 37.5V12.5C4.167 11.3542 4.57533 10.373 5.392 9.55629C6.20866 8.73963 7.18922 8.33199 8.33366 8.33338H41.667C42.8128 8.33338 43.7941 8.74171 44.6107 9.55838C45.4274 10.375 45.835 11.3556 45.8337 12.5V37.5C45.8337 38.6459 45.4253 39.6271 44.6087 40.4438C43.792 41.2605 42.8114 41.6681 41.667 41.6667H8.33366ZM25.0003 27.0834L41.667 16.6667V12.5L25.0003 22.9167L8.33366 12.5V16.6667L25.0003 27.0834Z" fill="#4ECB71"/>
</g>
</svg>
