<svg width="50" height="50" viewBox="0 0 50 50" fill="none" xmlns="http://www.w3.org/2000/svg">
<g id="material-symbols:globe">
<path id="Vector" d="M25.0003 45.8333C22.1184 45.8333 19.41 45.2861 16.8753 44.1916C14.3406 43.0972 12.1357 41.6132 10.2607 39.7395C8.38574 37.8645 6.90171 35.6597 5.80866 33.125C4.7156 30.5902 4.16838 27.8819 4.16699 25C4.16699 22.118 4.71421 19.4097 5.80866 16.875C6.9031 14.3402 8.38713 12.1354 10.2607 10.2604C12.1357 8.38538 14.3406 6.90135 16.8753 5.80829C19.41 4.71524 22.1184 4.16801 25.0003 4.16663C27.8823 4.16663 30.5906 4.71385 33.1253 5.80829C35.66 6.90274 37.8649 8.38677 39.7399 10.2604C41.6149 12.1354 43.0996 14.3402 44.1941 16.875C45.2885 19.4097 45.835 22.118 45.8337 25C45.8337 27.8819 45.2864 30.5902 44.192 33.125C43.0975 35.6597 41.6135 37.8645 39.7399 39.7395C37.8649 41.6145 35.66 43.0993 33.1253 44.1937C30.5906 45.2882 27.8823 45.8347 25.0003 45.8333ZM25.0003 41.6666C29.6531 41.6666 33.5941 40.052 36.8232 36.8229C40.0524 33.5937 41.667 29.6527 41.667 25C41.667 24.7569 41.658 24.5048 41.6399 24.2437C41.6218 23.9826 41.6135 23.7659 41.6149 23.5937C41.4413 24.6007 40.9725 25.434 40.2087 26.0937C39.4448 26.7534 38.542 27.0833 37.5003 27.0833H33.3337C32.1878 27.0833 31.2066 26.6757 30.3899 25.8604C29.5732 25.0451 29.1656 24.0638 29.167 22.9166V20.8333H20.8337V16.6666C20.8337 15.5208 21.242 14.5395 22.0587 13.7229C22.8753 12.9062 23.8559 12.4986 25.0003 12.5H27.0837C27.0837 11.7013 27.301 10.9986 27.7357 10.3916C28.1705 9.78468 28.6996 9.28954 29.3232 8.90621C28.6288 8.7326 27.926 8.59371 27.2149 8.48954C26.5038 8.38538 25.7656 8.33329 25.0003 8.33329C20.3475 8.33329 16.4066 9.94788 13.1774 13.177C9.94824 16.4062 8.33366 20.3472 8.33366 25H18.7503C21.042 25 23.0038 25.8159 24.6357 27.4479C26.2677 29.0798 27.0837 31.0416 27.0837 33.3333V35.4166H20.8337V41.1458C21.5281 41.3194 22.2142 41.45 22.892 41.5375C23.5698 41.625 24.2725 41.668 25.0003 41.6666Z" fill="#4ECB71"/>
</g>
</svg>
