<svg width="216" height="156" viewBox="0 0 216 156" fill="none" xmlns="http://www.w3.org/2000/svg">
<path d="M24.028 76.9671C24.94 77.8071 25.612 78.8151 26.044 79.9911C26.476 81.1431 26.644 82.2951 26.548 83.4471C26.452 84.5511 26.104 85.5711 25.504 86.5071C24.904 87.4191 23.992 88.1151 22.768 88.5951C21.808 89.0031 20.86 89.2911 19.924 89.4591C18.988 89.6271 17.956 89.7591 16.828 89.8551C16.324 89.9031 15.892 89.9391 15.532 89.9631C15.196 89.9631 14.8 89.9751 14.344 89.9991C14.248 89.9991 14.08 89.9991 13.84 89.9991C13.624 89.9991 13.468 90.0111 13.372 90.0351V97.4871C13.3 97.9431 13.204 98.4111 13.084 98.8911C12.988 99.3711 12.712 99.7431 12.256 100.007C11.992 100.151 11.668 100.235 11.284 100.259C10.9 100.283 10.552 100.271 10.24 100.223C9.904 100.175 9.616 100.091 9.376 99.9711C9.16 99.8271 8.98 99.5871 8.836 99.2511C8.74 99.0351 8.644 98.7951 8.548 98.5311C8.476 98.2431 8.44 97.8951 8.44 97.4871V77.5791C8.44 77.4111 8.452 77.2551 8.476 77.1111C8.5 76.9671 8.524 76.8231 8.548 76.6791C8.596 76.5591 8.632 76.4271 8.656 76.2831C8.68 76.1391 8.716 76.0071 8.764 75.8871C8.812 75.7671 8.86 75.6591 8.908 75.5631C8.98 75.4671 9.064 75.3831 9.16 75.3111C9.28 75.1911 9.46 75.0831 9.7 74.9871C9.964 74.8911 10.348 74.8431 10.852 74.8431H10.924C11.668 74.7951 12.496 74.7591 13.408 74.7351C14.32 74.6871 15.076 74.6991 15.676 74.7711C16.012 74.8191 16.324 74.8551 16.612 74.8791C16.9 74.8791 17.176 74.8911 17.44 74.9151C17.728 74.9391 18.016 74.9631 18.304 74.9871C18.592 75.0111 18.88 75.0471 19.168 75.0951C19.408 75.1431 19.624 75.1791 19.816 75.2031C20.032 75.2271 20.248 75.2631 20.464 75.3111C20.656 75.3591 20.86 75.4071 21.076 75.4551C21.316 75.5031 21.532 75.5871 21.724 75.7071C22.228 75.8511 22.648 76.0311 22.984 76.2471C23.32 76.4631 23.668 76.7031 24.028 76.9671ZM21.868 82.9071C21.892 82.3311 21.772 81.8271 21.508 81.3951C21.268 80.9631 20.92 80.6031 20.464 80.3151C20.008 80.0271 19.492 79.7991 18.916 79.6311C18.34 79.4631 17.764 79.3431 17.188 79.2711C17.044 79.2711 16.84 79.2711 16.576 79.2711C16.336 79.2471 16.072 79.2351 15.784 79.2351C15.496 79.2111 15.22 79.1991 14.956 79.1991C14.716 79.1751 14.524 79.1631 14.38 79.1631C14.26 79.1391 14.116 79.1271 13.948 79.1271C13.78 79.1271 13.588 79.1271 13.372 79.1271C13.396 79.8711 13.408 80.5911 13.408 81.2871C13.408 81.9591 13.408 82.6911 13.408 83.4831C13.384 83.9151 13.372 84.3471 13.372 84.7791C13.372 85.2111 13.372 85.6311 13.372 86.0391L15.604 86.0031C16.18 86.0031 16.816 85.9671 17.512 85.8951C18.208 85.8231 18.868 85.6791 19.492 85.4631C20.116 85.2471 20.644 84.9351 21.076 84.5271C21.532 84.1191 21.796 83.5791 21.868 82.9071ZM29.5346 87.4431C29.5346 87.1551 29.5346 86.8311 29.5346 86.4711C29.5346 86.0871 29.5466 85.7031 29.5706 85.3191C29.5946 84.9111 29.6306 84.5271 29.6786 84.1671C29.7506 83.7831 29.8466 83.4471 29.9666 83.1591C30.1586 82.7271 30.4586 82.4391 30.8666 82.2951C31.2746 82.1271 31.7186 82.0551 32.1986 82.0791C32.7026 82.0791 33.0986 82.1631 33.3866 82.3311C33.6746 82.4991 33.8906 82.7271 34.0346 83.0151C34.1786 83.2791 34.2626 83.5911 34.2866 83.9511C34.3346 84.2871 34.3586 84.6471 34.3586 85.0311C34.5746 84.6471 34.8626 84.3351 35.2226 84.0951C35.6066 83.8551 35.9906 83.6631 36.3746 83.5191C36.7586 83.3751 37.1066 83.2791 37.4186 83.2311C37.7306 83.1591 37.9106 83.1231 37.9586 83.1231C38.5586 83.0751 39.0986 83.0631 39.5786 83.0871C40.0826 83.1111 40.6346 83.2191 41.2346 83.4111C41.6186 83.5551 42.0146 83.7591 42.4226 84.0231C42.8306 84.2631 43.1906 84.5511 43.5026 84.8871C43.8146 85.2231 44.0186 85.5951 44.1146 86.0031C44.2346 86.3871 44.1866 86.7951 43.9706 87.2271C43.6346 87.8271 43.2626 88.1271 42.8546 88.1271C42.4466 88.1031 42.0026 88.0311 41.5226 87.9111C41.2586 87.8631 40.9466 87.7551 40.5866 87.5871C40.2266 87.4191 39.9146 87.3111 39.6506 87.2631C38.8346 87.1431 38.1146 87.2031 37.4906 87.4431C36.8666 87.6831 36.3266 87.9711 35.8706 88.3071C35.3426 88.7151 34.8866 89.1831 34.5026 89.7111V94.8951C34.5026 95.5431 34.4906 96.2151 34.4666 96.9111C34.4666 97.6071 34.3706 98.2431 34.1786 98.8191C34.0106 99.3711 33.7106 99.8271 33.2786 100.187C32.8706 100.523 32.2706 100.667 31.4786 100.619C31.0466 100.595 30.6626 100.391 30.3266 100.007C29.9906 99.5991 29.7866 99.2031 29.7146 98.8191C29.6666 98.4591 29.6306 98.0271 29.6066 97.5231C29.5826 97.0191 29.5586 96.4911 29.5346 95.9391C29.5346 95.3871 29.5346 94.8351 29.5346 94.2831C29.5346 93.7071 29.5346 93.1791 29.5346 92.6991V87.4431ZM50.1738 83.9151C50.9658 83.5311 51.7938 83.2551 52.6578 83.0871C53.5218 82.9191 54.3738 82.8831 55.2138 82.9791C56.0778 83.0751 56.9058 83.3031 57.6978 83.6631C58.5138 84.0231 59.2578 84.5271 59.9298 85.1751C60.4818 85.7271 60.9618 86.3991 61.3698 87.1911C61.7778 87.9591 62.0778 88.7151 62.2698 89.4591C62.6778 90.7791 62.7378 92.1111 62.4498 93.4551C62.1618 94.7991 61.6698 96.0471 60.9738 97.1991C60.6378 97.7271 60.2178 98.2071 59.7138 98.6391C59.2338 99.0471 58.7178 99.3831 58.1658 99.6471C57.4458 99.9831 56.6658 100.211 55.8258 100.331C54.9858 100.475 54.1698 100.511 53.3778 100.439C51.9378 100.367 50.6658 100.007 49.5618 99.3591C48.4818 98.7111 47.6058 97.8831 46.9338 96.8751C46.2858 95.8671 45.8538 94.7271 45.6378 93.4551C45.4458 92.1591 45.5298 90.8391 45.8898 89.4951C46.2738 88.0551 46.8258 86.8911 47.5458 86.0031C48.2898 85.0911 49.1658 84.3951 50.1738 83.9151ZM51.2538 88.7391C50.8938 89.0751 50.6178 89.4951 50.4258 89.9991C50.2338 90.5031 50.1138 91.0311 50.0658 91.5831C50.0178 92.1111 50.0538 92.6511 50.1738 93.2031C50.3178 93.7311 50.5338 94.2111 50.8218 94.6431C51.0618 95.0031 51.4938 95.3031 52.1178 95.5431C52.7418 95.7831 53.3898 95.9271 54.0618 95.9751C54.8298 96.0231 55.5018 95.8191 56.0778 95.3631C56.6538 94.8831 57.0858 94.2951 57.3738 93.5991C57.6858 92.9031 57.8298 92.1471 57.8058 91.3311C57.7818 90.5151 57.5658 89.7711 57.1578 89.0991C56.8698 88.6191 56.4618 88.2711 55.9338 88.0551C55.4298 87.8151 54.8898 87.6951 54.3138 87.6951C53.7618 87.6711 53.2098 87.7551 52.6578 87.9471C52.1058 88.1151 51.6378 88.3791 51.2538 88.7391ZM73.2316 79.3431C72.5116 79.5591 71.8996 79.4871 71.3956 79.1271C70.8916 78.7431 70.5796 78.2031 70.4596 77.5071C70.3876 77.0031 70.4356 76.5591 70.6036 76.1751C70.7956 75.7911 71.0476 75.5031 71.3596 75.3111C71.6956 75.1191 72.0796 75.0351 72.5116 75.0591C72.9436 75.0831 73.3756 75.2511 73.8076 75.5631C74.2156 75.8511 74.5036 76.1871 74.6716 76.5711C74.8636 76.9311 74.9236 77.2911 74.8516 77.6511C74.8036 78.0111 74.6476 78.3471 74.3836 78.6591C74.1196 78.9711 73.7356 79.1991 73.2316 79.3431ZM74.6716 85.9671C74.6716 86.2551 74.6716 86.7951 74.6716 87.5871C74.6716 88.3791 74.6716 89.2431 74.6716 90.1791C74.6716 91.0911 74.6716 91.9791 74.6716 92.8431C74.6716 93.7071 74.6716 94.3671 74.6716 94.8231C74.6476 95.5431 74.5996 96.3111 74.5276 97.1271C74.4796 97.9431 74.3596 98.7471 74.1676 99.5391C73.9996 100.331 73.7236 101.063 73.3396 101.735C72.9556 102.431 72.4276 103.007 71.7556 103.463C70.9876 103.967 70.1476 104.291 69.2356 104.435C68.3236 104.603 67.4356 104.555 66.5716 104.291C66.0436 104.171 65.5276 103.991 65.0236 103.751C64.5436 103.511 64.1356 103.199 63.7996 102.815C63.3676 102.359 63.0556 101.807 62.8636 101.159C62.6716 100.535 62.7916 99.9471 63.2236 99.3951C63.5116 99.0351 63.8596 98.8071 64.2676 98.7111C64.6996 98.5911 65.1196 98.6391 65.5276 98.8551C65.9116 99.0471 66.2836 99.2391 66.6436 99.4311C67.0036 99.6231 67.3636 99.7551 67.7236 99.8271C68.0836 99.8751 68.4436 99.8391 68.8036 99.7191C69.1636 99.5751 69.5236 99.2871 69.8836 98.8551C70.0516 98.6391 70.1716 98.3271 70.2436 97.9191C70.3396 97.5111 70.3996 97.0671 70.4236 96.5871C70.4716 96.0831 70.4956 95.5911 70.4956 95.1111C70.4956 94.6071 70.4956 94.1631 70.4956 93.7791C70.4956 93.2511 70.4956 92.8071 70.4956 92.4471C70.4956 92.0631 70.4956 91.7151 70.4956 91.4031C70.4956 91.0671 70.4956 90.7311 70.4956 90.3951C70.4956 90.0351 70.4956 89.6031 70.4956 89.0991C70.4956 88.8111 70.4836 88.3791 70.4596 87.8031C70.4356 87.2271 70.4236 86.6271 70.4236 86.0031C70.4476 85.3551 70.4956 84.7551 70.5676 84.2031C70.6636 83.6511 70.8076 83.2551 70.9996 83.0151C71.3116 82.6071 71.7076 82.4031 72.1876 82.4031C72.6916 82.3791 73.1476 82.4991 73.5556 82.7631C73.8196 82.9311 74.0236 83.1471 74.1676 83.4111C74.3116 83.6511 74.4196 83.9151 74.4916 84.2031C74.5636 84.4911 74.6116 84.7911 74.6356 85.1031C74.6596 85.3911 74.6716 85.6791 74.6716 85.9671ZM90.2241 95.2551C90.5121 95.1831 90.8001 95.1351 91.0881 95.1111C91.4001 95.0871 91.6761 95.1231 91.9161 95.2191C92.1801 95.3151 92.3961 95.4831 92.5641 95.7231C92.7321 95.9391 92.8161 96.2511 92.8161 96.6591C92.8161 96.9471 92.7441 97.2231 92.6001 97.4871C92.4561 97.7511 92.2761 97.9911 92.0601 98.2071C91.8441 98.4231 91.6041 98.6151 91.3401 98.7831C91.0761 98.9271 90.8241 99.0471 90.5841 99.1431C89.8881 99.4551 89.0841 99.6951 88.1721 99.8631C87.2841 100.031 86.3601 100.091 85.4001 100.043C84.1041 99.9951 82.8561 99.7431 81.6561 99.2871C80.4801 98.8071 79.5561 98.0271 78.8841 96.9471C78.2601 95.8911 77.8881 94.7151 77.7681 93.4191C77.6481 92.1231 77.7081 90.8991 77.9481 89.7471C78.2121 88.3551 78.6561 87.2271 79.2801 86.3631C79.9281 85.4751 80.6961 84.7671 81.5841 84.2391C82.6641 83.6151 83.8761 83.2911 85.2201 83.2671C86.5641 83.2431 87.8481 83.5071 89.0721 84.0591C89.8881 84.4191 90.6201 84.9111 91.2681 85.5351C91.9161 86.1351 92.4081 86.8671 92.7441 87.7311C92.8401 87.9471 92.9121 88.2111 92.9601 88.5231C93.0321 88.8351 93.0801 89.1711 93.1041 89.5311C93.1281 89.8671 93.1281 90.2031 93.1041 90.5391C93.0801 90.8751 93.0201 91.1751 92.9241 91.4391C92.7801 91.8711 92.6001 92.2071 92.3841 92.4471C92.1681 92.6871 91.8921 92.8671 91.5561 92.9871C91.2201 93.1071 90.8121 93.1911 90.3321 93.2391C89.8761 93.2631 89.3241 93.2871 88.6761 93.3111C88.1001 93.3351 87.5601 93.3471 87.0561 93.3471C86.5521 93.3471 86.0361 93.3471 85.5081 93.3471C84.9801 93.3231 84.4281 93.3111 83.8521 93.3111C83.3001 93.2871 82.6761 93.2631 81.9801 93.2391C81.9081 93.7191 81.9681 94.1391 82.1601 94.4991C82.3761 94.8351 82.6641 95.1231 83.0241 95.3631C83.3841 95.5791 83.7921 95.7471 84.2481 95.8671C84.7041 95.9871 85.1481 96.0591 85.5801 96.0831C86.3961 96.1311 87.1761 96.0711 87.9201 95.9031C88.6641 95.7111 89.4321 95.4951 90.2241 95.2551ZM88.6761 88.2711C88.2201 87.7431 87.7401 87.3591 87.2361 87.1191C86.8521 86.9511 86.4441 86.8791 86.0121 86.9031C85.6041 86.9031 85.2081 86.9631 84.8241 87.0831C84.1281 87.2511 83.5401 87.6111 83.0601 88.1631C83.0121 88.2111 82.9281 88.3311 82.8081 88.5231C82.6881 88.6911 82.5681 88.8711 82.4481 89.0631C82.3521 89.2551 82.2801 89.4351 82.2321 89.6031C82.1841 89.7711 82.2081 89.8551 82.3041 89.8551H89.3601C89.3361 89.5191 89.2761 89.2431 89.1801 89.0271C89.0841 88.7871 88.9161 88.5351 88.6761 88.2711ZM109.406 86.3271C109.598 86.6631 109.694 87.0231 109.694 87.4071C109.718 87.7911 109.634 88.1511 109.442 88.4871C109.226 88.9191 108.914 89.2191 108.506 89.3871C108.122 89.5311 107.69 89.5431 107.21 89.4231C106.994 89.3751 106.802 89.2911 106.634 89.1711C106.466 89.0511 106.286 88.9311 106.094 88.8111C105.926 88.6671 105.722 88.5351 105.482 88.4151C105.266 88.2951 104.978 88.2111 104.618 88.1631C104.258 88.1151 103.862 88.1151 103.43 88.1631C103.022 88.2111 102.65 88.3071 102.314 88.4511C101.786 88.7151 101.366 89.1231 101.054 89.6751C100.742 90.2031 100.538 90.7791 100.442 91.4031C100.346 92.0031 100.358 92.6151 100.478 93.2391C100.622 93.8631 100.886 94.3911 101.27 94.8231C101.558 95.1591 101.93 95.4351 102.386 95.6511C102.866 95.8671 103.322 95.9991 103.754 96.0471C104.162 96.0951 104.57 96.0951 104.978 96.0471C105.386 95.9751 105.782 95.8791 106.166 95.7591C106.454 95.6391 106.778 95.4831 107.138 95.2911C107.498 95.0751 107.846 94.9431 108.182 94.8951C108.614 94.8951 108.95 95.0151 109.19 95.2551C109.43 95.4711 109.598 95.7471 109.694 96.0831C109.79 96.3951 109.802 96.7311 109.73 97.0911C109.682 97.4511 109.55 97.7631 109.334 98.0271C109.046 98.3871 108.638 98.7351 108.11 99.0711C107.582 99.3831 107.078 99.6111 106.598 99.7551C106.022 99.9471 105.374 100.055 104.654 100.079C103.958 100.103 103.298 100.079 102.674 100.007C102.386 99.9591 102.086 99.8991 101.774 99.8271C101.462 99.7551 101.162 99.6711 100.874 99.5751C99.8182 99.1911 98.9302 98.6511 98.2102 97.9551C97.5142 97.2351 96.9742 96.4311 96.5902 95.5431C96.2302 94.6551 96.0262 93.7071 95.9782 92.6991C95.9302 91.6911 96.0502 90.6951 96.3382 89.7111C96.6022 88.7751 96.9262 87.9831 97.3102 87.3351C97.7182 86.6871 98.1862 86.1591 98.7142 85.7511C99.2662 85.3191 99.8782 84.9831 100.55 84.7431C101.222 84.4791 101.966 84.2511 102.782 84.0591C103.622 83.8911 104.51 83.8911 105.446 84.0591C106.382 84.2271 107.222 84.5391 107.966 84.9951C108.542 85.3071 109.022 85.7511 109.406 86.3271ZM126.925 84.3111C127.117 84.7671 127.129 85.2711 126.961 85.8231C126.817 86.3751 126.541 86.7351 126.133 86.9031C125.917 86.9991 125.629 87.0831 125.269 87.1551C124.909 87.2031 124.513 87.2511 124.081 87.2991C123.673 87.3471 123.265 87.3831 122.857 87.4071C122.449 87.4311 122.101 87.4431 121.813 87.4431C121.837 88.1631 121.861 88.9071 121.885 89.6751C121.909 90.4191 121.933 91.1511 121.957 91.8711C121.981 92.5911 121.993 93.2871 121.993 93.9591C121.993 94.6071 121.981 95.1951 121.957 95.7231C121.957 96.0831 121.957 96.5031 121.957 96.9831C121.957 97.4391 121.921 97.8831 121.849 98.3151C121.801 98.7471 121.717 99.1311 121.597 99.4671C121.477 99.7791 121.297 99.9831 121.057 100.079C120.313 100.391 119.629 100.475 119.005 100.331C118.405 100.211 117.973 99.9591 117.709 99.5751C117.517 99.2631 117.373 98.9031 117.277 98.4951C117.181 98.0631 117.109 97.6311 117.061 97.1991C117.037 96.7431 117.025 96.3111 117.025 95.9031C117.049 95.4711 117.061 95.0991 117.061 94.7871C117.085 93.7791 117.097 92.6391 117.097 91.3671C117.121 90.0711 117.133 88.7751 117.133 87.4791H116.593C116.305 87.4791 115.933 87.4791 115.477 87.4791C115.045 87.4551 114.601 87.4191 114.145 87.3711C113.713 87.2991 113.305 87.2151 112.921 87.1191C112.537 86.9991 112.261 86.8311 112.093 86.6151C111.829 86.3031 111.661 85.9671 111.589 85.6071C111.541 85.2471 111.565 84.9111 111.661 84.5991C111.781 84.2631 111.961 83.9751 112.201 83.7351C112.441 83.4711 112.717 83.3031 113.029 83.2311C113.461 83.1111 114.073 83.0511 114.865 83.0511C115.657 83.0271 116.401 83.0271 117.097 83.0511C117.073 82.8111 117.061 82.5831 117.061 82.3671C117.061 82.1271 117.049 81.8991 117.025 81.6831C117.001 81.3951 116.989 81.0351 116.989 80.6031C116.989 80.1471 117.013 79.7031 117.061 79.2711C117.133 78.8151 117.241 78.3951 117.385 78.0111C117.529 77.6031 117.733 77.2911 117.997 77.0751C118.357 76.7871 118.717 76.6311 119.077 76.6071C119.461 76.5591 119.809 76.6071 120.121 76.7511C120.457 76.8951 120.733 77.1111 120.949 77.3991C121.189 77.6631 121.357 77.9631 121.453 78.2991C121.525 78.5871 121.585 78.9351 121.633 79.3431C121.681 79.7271 121.705 80.1351 121.705 80.5671C121.729 80.9991 121.741 81.4311 121.741 81.8631C121.741 82.2951 121.741 82.6911 121.741 83.0511H122.101C122.461 83.0511 122.881 83.0391 123.361 83.0151C123.841 82.9911 124.309 83.0031 124.765 83.0511C125.245 83.0991 125.677 83.2191 126.061 83.4111C126.445 83.5791 126.733 83.8791 126.925 84.3111Z" fill="black"/>
<g filter="url(#filter0_d_2546_11)">
<path d="M86.92 111.387C87.9333 112.32 88.68 113.44 89.16 114.747C89.64 116.027 89.8267 117.307 89.72 118.587C89.6133 119.814 89.2267 120.947 88.56 121.987C87.8933 123 86.88 123.774 85.52 124.307C84.4533 124.76 83.4 125.08 82.36 125.267C81.32 125.454 80.1733 125.6 78.92 125.707C78.36 125.76 77.88 125.8 77.48 125.827C77.1067 125.827 76.6667 125.84 76.16 125.867C76.0533 125.867 75.8667 125.867 75.6 125.867C75.36 125.867 75.1867 125.88 75.08 125.907V134.187C75 134.694 74.8933 135.214 74.76 135.747C74.6533 136.28 74.3467 136.694 73.84 136.987C73.5467 137.147 73.1867 137.24 72.76 137.267C72.3333 137.294 71.9467 137.28 71.6 137.227C71.2267 137.174 70.9067 137.08 70.64 136.947C70.4 136.787 70.2 136.52 70.04 136.147C69.9333 135.907 69.8267 135.64 69.72 135.347C69.64 135.027 69.6 134.64 69.6 134.187V112.067C69.6 111.88 69.6133 111.707 69.64 111.547C69.6667 111.387 69.6933 111.227 69.72 111.067C69.7733 110.934 69.8133 110.787 69.84 110.627C69.8667 110.467 69.9067 110.32 69.96 110.187C70.0133 110.054 70.0667 109.934 70.12 109.827C70.2 109.72 70.2933 109.627 70.4 109.547C70.5333 109.414 70.7333 109.294 71 109.187C71.2933 109.08 71.72 109.027 72.28 109.027H72.36C73.1867 108.974 74.1067 108.934 75.12 108.907C76.1333 108.854 76.9733 108.867 77.64 108.947C78.0133 109 78.36 109.04 78.68 109.067C79 109.067 79.3067 109.08 79.6 109.107C79.92 109.134 80.24 109.16 80.56 109.187C80.88 109.214 81.2 109.254 81.52 109.307C81.7867 109.36 82.0267 109.4 82.24 109.427C82.48 109.454 82.72 109.494 82.96 109.547C83.1733 109.6 83.4 109.654 83.64 109.707C83.9067 109.76 84.1467 109.854 84.36 109.987C84.92 110.147 85.3867 110.347 85.76 110.587C86.1333 110.827 86.52 111.094 86.92 111.387ZM84.52 117.987C84.5467 117.347 84.4133 116.787 84.12 116.307C83.8533 115.827 83.4667 115.427 82.96 115.107C82.4533 114.787 81.88 114.534 81.24 114.347C80.6 114.16 79.96 114.027 79.32 113.947C79.16 113.947 78.9333 113.947 78.64 113.947C78.3733 113.92 78.08 113.907 77.76 113.907C77.44 113.88 77.1333 113.867 76.84 113.867C76.5733 113.84 76.36 113.827 76.2 113.827C76.0667 113.8 75.9067 113.787 75.72 113.787C75.5333 113.787 75.32 113.787 75.08 113.787C75.1067 114.614 75.12 115.414 75.12 116.187C75.12 116.934 75.12 117.747 75.12 118.627C75.0933 119.107 75.08 119.587 75.08 120.067C75.08 120.547 75.08 121.014 75.08 121.467L77.56 121.427C78.2 121.427 78.9067 121.387 79.68 121.307C80.4533 121.227 81.1867 121.067 81.88 120.827C82.5733 120.587 83.16 120.24 83.64 119.787C84.1467 119.334 84.44 118.734 84.52 117.987ZM93.0384 123.027C93.0384 122.707 93.0384 122.347 93.0384 121.947C93.0384 121.52 93.0518 121.094 93.0784 120.667C93.1051 120.214 93.1451 119.787 93.1984 119.387C93.2784 118.96 93.3851 118.587 93.5184 118.267C93.7318 117.787 94.0651 117.467 94.5184 117.307C94.9718 117.12 95.4651 117.04 95.9984 117.067C96.5584 117.067 96.9984 117.16 97.3184 117.347C97.6384 117.534 97.8784 117.787 98.0384 118.107C98.1984 118.4 98.2918 118.747 98.3184 119.147C98.3718 119.52 98.3984 119.92 98.3984 120.347C98.6384 119.92 98.9584 119.574 99.3584 119.307C99.7851 119.04 100.212 118.827 100.638 118.667C101.065 118.507 101.452 118.4 101.798 118.347C102.145 118.267 102.345 118.227 102.398 118.227C103.065 118.174 103.665 118.16 104.198 118.187C104.758 118.214 105.372 118.334 106.038 118.547C106.465 118.707 106.905 118.934 107.358 119.227C107.812 119.494 108.212 119.814 108.558 120.187C108.905 120.56 109.132 120.974 109.238 121.427C109.372 121.854 109.318 122.307 109.078 122.787C108.705 123.454 108.292 123.787 107.838 123.787C107.385 123.76 106.892 123.68 106.358 123.547C106.065 123.494 105.718 123.374 105.318 123.187C104.918 123 104.572 122.88 104.278 122.827C103.372 122.694 102.572 122.76 101.878 123.027C101.185 123.294 100.585 123.614 100.078 123.987C99.4918 124.44 98.9851 124.96 98.5584 125.547V131.307C98.5584 132.027 98.5451 132.774 98.5184 133.547C98.5184 134.32 98.4118 135.027 98.1984 135.667C98.0118 136.28 97.6784 136.787 97.1984 137.187C96.7451 137.56 96.0784 137.72 95.1984 137.667C94.7184 137.64 94.2918 137.414 93.9184 136.987C93.5451 136.534 93.3184 136.094 93.2384 135.667C93.1851 135.267 93.1451 134.787 93.1184 134.227C93.0918 133.667 93.0651 133.08 93.0384 132.467C93.0384 131.854 93.0384 131.24 93.0384 130.627C93.0384 129.987 93.0384 129.4 93.0384 128.867V123.027ZM115.971 119.107C116.851 118.68 117.771 118.374 118.731 118.187C119.691 118 120.638 117.96 121.571 118.067C122.531 118.174 123.451 118.427 124.331 118.827C125.238 119.227 126.064 119.787 126.811 120.507C127.424 121.12 127.958 121.867 128.411 122.747C128.864 123.6 129.198 124.44 129.411 125.267C129.864 126.734 129.931 128.214 129.611 129.707C129.291 131.2 128.744 132.587 127.971 133.867C127.598 134.454 127.131 134.987 126.571 135.467C126.038 135.92 125.464 136.294 124.851 136.587C124.051 136.96 123.184 137.214 122.251 137.347C121.318 137.507 120.411 137.547 119.531 137.467C117.931 137.387 116.518 136.987 115.291 136.267C114.091 135.547 113.118 134.627 112.371 133.507C111.651 132.387 111.171 131.12 110.931 129.707C110.718 128.267 110.811 126.8 111.211 125.307C111.638 123.707 112.251 122.414 113.051 121.427C113.878 120.414 114.851 119.64 115.971 119.107ZM117.171 124.467C116.771 124.84 116.464 125.307 116.251 125.867C116.038 126.427 115.904 127.014 115.851 127.627C115.798 128.214 115.838 128.814 115.971 129.427C116.131 130.014 116.371 130.547 116.691 131.027C116.958 131.427 117.438 131.76 118.131 132.027C118.824 132.294 119.544 132.454 120.291 132.507C121.144 132.56 121.891 132.334 122.531 131.827C123.171 131.294 123.651 130.64 123.971 129.867C124.318 129.094 124.478 128.254 124.451 127.347C124.424 126.44 124.184 125.614 123.731 124.867C123.411 124.334 122.958 123.947 122.371 123.707C121.811 123.44 121.211 123.307 120.571 123.307C119.958 123.28 119.344 123.374 118.731 123.587C118.118 123.774 117.598 124.067 117.171 124.467Z" fill="black"/>
</g>
<g filter="url(#filter1_d_2546_11)">
<path d="M211.788 -6.70152e-05L154.273 5.03187L187.388 52.3256L211.788 -6.70152e-05ZM9.86788 147.49L177.794 29.9066L172.058 21.7151L4.13212 139.298L9.86788 147.49Z" fill="url(#paint0_linear_2546_11)"/>
</g>
<defs>
<filter id="filter0_d_2546_11" x="65.6" y="108.827" width="68.491" height="36.92" filterUnits="userSpaceOnUse" color-interpolation-filters="sRGB">
<feFlood flood-opacity="0" result="BackgroundImageFix"/>
<feColorMatrix in="SourceAlpha" type="matrix" values="0 0 0 0 0 0 0 0 0 0 0 0 0 0 0 0 0 0 127 0" result="hardAlpha"/>
<feOffset dy="4"/>
<feGaussianBlur stdDeviation="2"/>
<feComposite in2="hardAlpha" operator="out"/>
<feColorMatrix type="matrix" values="0 0 0 0 0 0 0 0 0 0 0 0 0 0 0 0 0 0 0.25 0"/>
<feBlend mode="normal" in2="BackgroundImageFix" result="effect1_dropShadow_2546_11"/>
<feBlend mode="normal" in="SourceGraphic" in2="effect1_dropShadow_2546_11" result="shape"/>
</filter>
<filter id="filter1_d_2546_11" x="0.132141" y="-0.00012207" width="215.656" height="155.49" filterUnits="userSpaceOnUse" color-interpolation-filters="sRGB">
<feFlood flood-opacity="0" result="BackgroundImageFix"/>
<feColorMatrix in="SourceAlpha" type="matrix" values="0 0 0 0 0 0 0 0 0 0 0 0 0 0 0 0 0 0 127 0" result="hardAlpha"/>
<feOffset dy="4"/>
<feGaussianBlur stdDeviation="2"/>
<feComposite in2="hardAlpha" operator="out"/>
<feColorMatrix type="matrix" values="0 0 0 0 0 0 0 0 0 0 0 0 0 0 0 0 0 0 0.25 0"/>
<feBlend mode="normal" in2="BackgroundImageFix" result="effect1_dropShadow_2546_11"/>
<feBlend mode="normal" in="SourceGraphic" in2="effect1_dropShadow_2546_11" result="shape"/>
</filter>
<linearGradient id="paint0_linear_2546_11" x1="212.075" y1="0.4095" x2="7.28707" y2="143.804" gradientUnits="userSpaceOnUse">
<stop stop-color="#00FFFF"/>
<stop offset="1" stop-color="#DB00FF" stop-opacity="0.5"/>
</linearGradient>
</defs>
</svg>
